<?xml version="1.0" encoding="utf-8"?>
<!-- Uploaded to: SVG Repo, www.svgrepo.com, Generator: SVG Repo Mixer Tools -->
<svg fill="#000000" version="1.1" id="Layer_1" xmlns="http://www.w3.org/2000/svg" xmlns:xlink="http://www.w3.org/1999/xlink" 
	 width="800px" height="800px" viewBox="0 0 260 212" enable-background="new 0 0 260 212" xml:space="preserve">
<polygon points="238.683,80.402 225.908,76.953 215.321,76.572 207.637,67.009 220.96,36.463 196.099,21.69 180.945,25.448 
	146.926,2.372 123.827,7.344 119.021,25.615 94.661,32.633 75.343,24.283 59.833,28.898 56.526,15.243 41.776,20.072 2,45.36 
	6.354,71.124 24.695,86.088 35.163,78.927 44.417,80.854 51.696,104.216 64.519,104.953 83.337,123.271 102.202,123.581 
	111.456,136.593 115.262,152.532 110.647,161.573 130.202,165.545 154.491,160.74 159.701,180.319 167.171,179.034 197.241,198.565 
	202.761,209.628 223.981,204.418 230,193.094 217.51,168.543 227.311,145.61 252.267,127.791 258,108.974 "/>
</svg>